<svg id="Layer_1" data-name="Layer 1" xmlns="http://www.w3.org/2000/svg" viewBox="0 0 423.54 423.55"><defs><style>.cls-1{fill:#f7a040;}.cls-2{fill:#f3d142;}.cls-3{fill:#e3943d;}.cls-4{fill:#445466;}.cls-5{fill:#456;}.cls-6{fill:#4eb986;}</style></defs><circle class="cls-1" cx="211.46" cy="211.44" r="164.5"/><path class="cls-2" d="M532.58,240.91A211.69,211.69,0,0,1,315.89,452.56C202,450.15,106.38,356.08,109.1,235.45c2.57-113.7,96.57-209.12,217.08-206.34C439.88,31.74,532.54,124.67,532.58,240.91ZM320.86,65c-96.9-.33-175.67,78.92-176,175.26-.3,97.34,79.07,176.4,175.66,176.51,97.07.12,176-79,176.18-175.55C496.92,144,417.64,64.64,320.86,65Z" transform="translate(-109.04 -29.06)"/><path class="cls-3" d="M320.86,65c96.78-.33,176.06,79.07,175.88,176.22-.18,96.51-79.11,175.67-176.18,175.55-96.59-.11-176-79.17-175.66-176.51C145.19,143.89,224,64.64,320.86,65Zm0,335.85c89.17-1.58,159.38-70.77,159.61-159.5.23-89.68-70.46-159.88-159-160.16-89.75-.29-160.15,70.51-160.27,159.38C161,330,231.68,399.31,320.87,400.82Z" transform="translate(-109.04 -29.06)"/><path class="cls-4" d="M392.06,162c-6.92,12.2-13.79,24.42-20.77,36.57Q349.78,236,328.18,273.42C326.21,276.84,321,286,321,286s-45.72-75.79-58.33-97.71c-5-8.73-9.91-17.54-14.85-26.32,13.9-.07,44.18,0,44.18,0l29,47,27-47S378.75,161.9,392.06,162Z" transform="translate(-109.04 -29.06)"/><polygon class="cls-4" points="150.49 231.62 162.07 252.15 110.96 251.94 99.38 231.62 150.49 231.62"/><polygon class="cls-4" points="262.96 251.94 274.3 231.94 325.44 231.94 313.96 251.94 262.96 251.94"/><path class="cls-5" d="M233.94,222,245,241H199s-6.58-12.69-10.12-19Z" transform="translate(-109.04 -29.06)"/><polygon class="cls-5" points="285.96 211.94 297.96 192.94 343.98 192.94 331.96 211.94 285.96 211.94"/><path class="cls-6" d="M199,162s34.32-.1,48.82,0c4.94,8.78,9.82,17.59,14.85,26.32C275.28,210.21,321,286,321,286s35.95-62.48,50.29-87.46c7-12.15,13.85-24.37,20.77-36.57,15.23-.07,48.94,0,48.94,0s-15.23,26.46-21.84,38c-4.07,7.1-70.7,122.38-82.33,142.48C332,350.83,321,372,321,372l-47.32-80.37s-25.12-43.29-29.1-50C241.46,234.45,199,162,199,162Z" transform="translate(-109.04 -29.06)"/></svg>